# xmcd
#
# Track frame offsets: 
#        180
#        14560
#        26695
#        40480
#        55908
#        67657
#        75681
#        89857
#        101365
#        111442
#        120380
#        128878
#        136539
#        148374
#        159061
#        168909
#        181791
#        192405
#        207173
#
# Disc length: 2878 seconds
#
# Revision: 1
# Processed by: cddbd v1.5.2PL0 Copyright (c) Steve Scherf et al.
# Submitted via: ExactAudioCopyFreeDBPlugin 1.0
#
DISCID=020b3c13
DTITLE=Etta Baker - Railroad Bill
DYEAR=1999
DGENRE=Blues
TTITLE0=Carolina Breakdown
TTITLE1=Railroad Bill
TTITLE2=I Get The Blues When It Rains
TTITLE3=Careless Love
TTITLE4=Don't Let Your Deal Go Down
TTITLE5=Sunny Tennesse
TTITLE6=Mint Julep
TTITLE7=Browns Boogie
TTITLE8=Lonesome  Road Blues
TTITLE9=Goodbye Booze
TTITLE10=Nobody's Business
TTITLE11=One-Dime Blues
TTITLE12=Going Down The Road Feeling Bad
TTITLE13=Candyman
TTITLE14=Miss Aa Little Miss
TTITLE15=Baby Let Me Lay It On You
TTITLE16=Chilly Winds
TTITLE17=John Henry
TTITLE18=Cripple Creek
EXTD=YEAR: 1999
EXTT0=
EXTT1=
EXTT2=
EXTT3=
EXTT4=
EXTT5=
EXTT6=
EXTT7=
EXTT8=
EXTT9=
EXTT10=
EXTT11=
EXTT12=
EXTT13=
EXTT14=
EXTT15=
EXTT16=
EXTT17=
EXTT18=
PLAYORDER=
